<?xml version="1.0" encoding="UTF-8"?>
<svg id="Layer_1" xmlns="http://www.w3.org/2000/svg" version="1.1" viewBox="0 0 1024 1024">
  <!-- Generator: Adobe Illustrator 29.8.1, SVG Export Plug-In . SVG Version: 2.1.1 Build 2)  -->
  <path d="M275.87,880.64l272-184.16,120.79,114,78.55-56.88,184.6,125.1c25.61-42.94,44.44-89.58,55.81-138.27-64.41-21.42-127-48.15-185.92-73.32-97-41.44-188.51-80.52-253.69-80.52-59.57,0-71.53,18.85-89.12,55-16.89,34.55-37.84,77.6-139.69,77.6-81.26,0-159.95-29.93-243.27-61.61-17.07-6.5-34.57-13.14-52.49-19.69,1.46,86.98,26.24,171.97,71.75,246.11l91.29-62.16,89.39,58.8Z"/>
  <path d="M295.26,506.52c53.69,0,64.49-17.36,80.41-50.63,15.46-32.33,34.7-72.56,128.36-72.56,75,0,154.6,33.2,246.78,71.64,74.85,31.21,156.89,65.34,241,81.63-11.13-58.42-32.91-114.3-64.23-164.85-108.88-6-201.82-43.35-284.6-76.69-66.77-26.89-129.69-52.22-182.84-52.22-46.88,0-56.43,15.74-70.55,45.89-13.41,28.65-31.79,67.87-118.24,67.87-44.25,0-90.68-13.48-141-33.11-27.43,34.2-50.13,71.95-67.49,112.21,8.3,3.38,16.55,6.74,24.68,10.08,76.34,31.22,148.3,60.74,207.72,60.74Z"/>
  <path d="M319.2,687.81c61.24,0,73.38-19.09,91.18-55.66,16.7-34.28,37.48-76.95,137.58-76.95,81.4,0,174.78,39.89,282.9,86.09,52.19,22.29,107.38,45.84,163.42,65.43,7.37-45.14,8.28-91.1,2.72-136.5-98.59-15.82-191-54.22-274.73-89.17-81.88-34.14-159.08-66.33-218.27-66.33-53.25,0-64,17.29-79.84,50.42-15.51,32.42-34.8,72.77-128.93,72.77-75.08,0-153.29-32-236.08-66l-8.91-3.64c-14.94,43.02-23.78,87.93-26.24,133.41,27.31,9.55,53.55,19.52,79,29.19,80.24,30.55,149.61,56.94,216.2,56.94Z"/>
  <path d="M341,279.65c13.49-28.78,31.95-68.19,119.16-68.19,68.59,0,137.73,27.84,210.92,57.32,70.14,28.22,148.13,59.58,233.72,69.37-89.03-120.15-231.8-198.15-392.92-198.15-141.15,0-268.24,59.92-357.45,155.62,44,17.32,84.15,29.6,116.89,29.6,46.24,0,55.22-14.79,69.68-45.57Z"/>
</svg>